# xmcd CD database file
#
# Track frame offsets:
#	150
#	17815
#	37077
#	69028
#	89630
#	106079
#
# Disc length: 1694 seconds
#
# Revision: 2
# Processed by: cddbd v1.5.2PL0 Copyright (c) Steve Scherf et al.
# Submitted via: CDex 1.51
#
DISCID=44069c06
DTITLE=Various Artist - JB-Reggae-0
DYEAR=1900
DGENRE=Blues
TTITLE0=Toots and The Maytals - Country Roads (take me home)
TTITLE1=UB40 - Every Breath You Take
TTITLE2=Bob Marley and The Wailers - No Woman No Cry (live version)
TTITLE3=Gregory Isaacs - Night Nurse
TTITLE4=Susan Cadogan - Hurt So Good
TTITLE5=Cameo - Candy (she's like)
EXTD=
EXTT0=
EXTT1=
EXTT2=
EXTT3=
EXTT4=
EXTT5=
PLAYORDER=
